<mxfile host="app.diagrams.net" modified="2024-04-13T03:52:32.667Z" agent="Mozilla/5.0 (Windows NT 10.0; Win64; x64) AppleWebKit/537.36 (KHTML, like Gecko) Chrome/123.0.0.0 Safari/537.36" etag="TRpT-MikAAODDmuqu97k" version="24.2.5" type="device">
  <diagram name="Page-1" id="tdAciLSABr7YYbpgYSAo">
    <mxGraphModel dx="2074" dy="1140" grid="1" gridSize="10" guides="1" tooltips="1" connect="1" arrows="1" fold="1" page="1" pageScale="1" pageWidth="850" pageHeight="1100" math="0" shadow="0">
      <root>
        <mxCell id="0" />
        <mxCell id="1" parent="0" />
        <mxCell id="B7hUHJXY5SvOpSoeIQ8R-1" value="Account" style="swimlane;fontStyle=1;align=center;verticalAlign=top;childLayout=stackLayout;horizontal=1;startSize=26;horizontalStack=0;resizeParent=1;resizeParentMax=0;resizeLast=0;collapsible=1;marginBottom=0;whiteSpace=wrap;html=1;" vertex="1" parent="1">
          <mxGeometry x="310" y="230" width="210" height="200" as="geometry" />
        </mxCell>
        <mxCell id="B7hUHJXY5SvOpSoeIQ8R-2" value="- Username: String&lt;div&gt;- Password: String&lt;/div&gt;" style="text;strokeColor=none;fillColor=none;align=left;verticalAlign=top;spacingLeft=4;spacingRight=4;overflow=hidden;rotatable=0;points=[[0,0.5],[1,0.5]];portConstraint=eastwest;whiteSpace=wrap;html=1;" vertex="1" parent="B7hUHJXY5SvOpSoeIQ8R-1">
          <mxGeometry y="26" width="210" height="54" as="geometry" />
        </mxCell>
        <mxCell id="B7hUHJXY5SvOpSoeIQ8R-3" value="" style="line;strokeWidth=1;fillColor=none;align=left;verticalAlign=middle;spacingTop=-1;spacingLeft=3;spacingRight=3;rotatable=0;labelPosition=right;points=[];portConstraint=eastwest;strokeColor=inherit;" vertex="1" parent="B7hUHJXY5SvOpSoeIQ8R-1">
          <mxGeometry y="80" width="210" height="8" as="geometry" />
        </mxCell>
        <mxCell id="B7hUHJXY5SvOpSoeIQ8R-4" value="+getUsername(): String&lt;div&gt;+setUsername(): String&lt;br&gt;&lt;div&gt;+getPassword(): String&lt;/div&gt;&lt;div&gt;+setPassword(): String&lt;/div&gt;&lt;div&gt;&lt;span style=&quot;background-color: initial;&quot;&gt;+login():&lt;/span&gt;&lt;br&gt;&lt;/div&gt;&lt;div&gt;+logout()&lt;/div&gt;&lt;/div&gt;" style="text;strokeColor=none;fillColor=none;align=left;verticalAlign=top;spacingLeft=4;spacingRight=4;overflow=hidden;rotatable=0;points=[[0,0.5],[1,0.5]];portConstraint=eastwest;whiteSpace=wrap;html=1;" vertex="1" parent="B7hUHJXY5SvOpSoeIQ8R-1">
          <mxGeometry y="88" width="210" height="112" as="geometry" />
        </mxCell>
        <mxCell id="B7hUHJXY5SvOpSoeIQ8R-5" value="Player" style="swimlane;fontStyle=1;align=center;verticalAlign=top;childLayout=stackLayout;horizontal=1;startSize=26;horizontalStack=0;resizeParent=1;resizeParentMax=0;resizeLast=0;collapsible=1;marginBottom=0;whiteSpace=wrap;html=1;" vertex="1" parent="1">
          <mxGeometry x="320" y="480" width="190" height="260" as="geometry" />
        </mxCell>
        <mxCell id="B7hUHJXY5SvOpSoeIQ8R-6" value="- Level: Int&lt;div&gt;- Exp: Int&lt;/div&gt;&lt;div&gt;- Game Library: List of Game object&lt;/div&gt;&lt;div&gt;- Trophy Collection: List of Trophy objects&lt;/div&gt;&lt;div&gt;- Friend List: List of friend objects&lt;/div&gt;" style="text;strokeColor=none;fillColor=none;align=left;verticalAlign=top;spacingLeft=4;spacingRight=4;overflow=hidden;rotatable=0;points=[[0,0.5],[1,0.5]];portConstraint=eastwest;whiteSpace=wrap;html=1;" vertex="1" parent="B7hUHJXY5SvOpSoeIQ8R-5">
          <mxGeometry y="26" width="190" height="114" as="geometry" />
        </mxCell>
        <mxCell id="B7hUHJXY5SvOpSoeIQ8R-7" value="" style="line;strokeWidth=1;fillColor=none;align=left;verticalAlign=middle;spacingTop=-1;spacingLeft=3;spacingRight=3;rotatable=0;labelPosition=right;points=[];portConstraint=eastwest;strokeColor=inherit;" vertex="1" parent="B7hUHJXY5SvOpSoeIQ8R-5">
          <mxGeometry y="140" width="190" height="8" as="geometry" />
        </mxCell>
        <mxCell id="B7hUHJXY5SvOpSoeIQ8R-8" value="+ addGame():&lt;div&gt;+ removeGame():&lt;/div&gt;&lt;div&gt;+ viewGameLibrary():&lt;/div&gt;&lt;div&gt;+ viewTrophyCollection():&lt;/div&gt;&lt;div&gt;+ addFriend():&lt;/div&gt;&lt;div&gt;+ removeFriend():&lt;/div&gt;&lt;div&gt;+ viewFriend():&amp;nbsp;&lt;/div&gt;" style="text;strokeColor=none;fillColor=none;align=left;verticalAlign=top;spacingLeft=4;spacingRight=4;overflow=hidden;rotatable=0;points=[[0,0.5],[1,0.5]];portConstraint=eastwest;whiteSpace=wrap;html=1;" vertex="1" parent="B7hUHJXY5SvOpSoeIQ8R-5">
          <mxGeometry y="148" width="190" height="112" as="geometry" />
        </mxCell>
        <mxCell id="B7hUHJXY5SvOpSoeIQ8R-9" value="Game" style="swimlane;fontStyle=1;align=center;verticalAlign=top;childLayout=stackLayout;horizontal=1;startSize=26;horizontalStack=0;resizeParent=1;resizeParentMax=0;resizeLast=0;collapsible=1;marginBottom=0;whiteSpace=wrap;html=1;" vertex="1" parent="1">
          <mxGeometry x="335" y="820" width="160" height="140" as="geometry" />
        </mxCell>
        <mxCell id="B7hUHJXY5SvOpSoeIQ8R-10" value="- Title: String&lt;div&gt;- Trophies: List of Trophy objects&lt;br&gt;&lt;div&gt;&lt;br&gt;&lt;/div&gt;&lt;/div&gt;" style="text;strokeColor=none;fillColor=none;align=left;verticalAlign=top;spacingLeft=4;spacingRight=4;overflow=hidden;rotatable=0;points=[[0,0.5],[1,0.5]];portConstraint=eastwest;whiteSpace=wrap;html=1;" vertex="1" parent="B7hUHJXY5SvOpSoeIQ8R-9">
          <mxGeometry y="26" width="160" height="64" as="geometry" />
        </mxCell>
        <mxCell id="B7hUHJXY5SvOpSoeIQ8R-11" value="" style="line;strokeWidth=1;fillColor=none;align=left;verticalAlign=middle;spacingTop=-1;spacingLeft=3;spacingRight=3;rotatable=0;labelPosition=right;points=[];portConstraint=eastwest;strokeColor=inherit;" vertex="1" parent="B7hUHJXY5SvOpSoeIQ8R-9">
          <mxGeometry y="90" width="160" height="8" as="geometry" />
        </mxCell>
        <mxCell id="B7hUHJXY5SvOpSoeIQ8R-12" value="+ addTrophy()&lt;div&gt;+ removeTrophy()&lt;/div&gt;" style="text;strokeColor=none;fillColor=none;align=left;verticalAlign=top;spacingLeft=4;spacingRight=4;overflow=hidden;rotatable=0;points=[[0,0.5],[1,0.5]];portConstraint=eastwest;whiteSpace=wrap;html=1;" vertex="1" parent="B7hUHJXY5SvOpSoeIQ8R-9">
          <mxGeometry y="98" width="160" height="42" as="geometry" />
        </mxCell>
        <mxCell id="B7hUHJXY5SvOpSoeIQ8R-13" value="Trophy" style="swimlane;fontStyle=1;align=center;verticalAlign=top;childLayout=stackLayout;horizontal=1;startSize=26;horizontalStack=0;resizeParent=1;resizeParentMax=0;resizeLast=0;collapsible=1;marginBottom=0;whiteSpace=wrap;html=1;" vertex="1" parent="1">
          <mxGeometry x="610" y="825" width="160" height="130" as="geometry" />
        </mxCell>
        <mxCell id="B7hUHJXY5SvOpSoeIQ8R-14" value="- Name: String&lt;div&gt;- Description: String&lt;/div&gt;&lt;div&gt;- Points: String&lt;/div&gt;" style="text;strokeColor=none;fillColor=none;align=left;verticalAlign=top;spacingLeft=4;spacingRight=4;overflow=hidden;rotatable=0;points=[[0,0.5],[1,0.5]];portConstraint=eastwest;whiteSpace=wrap;html=1;" vertex="1" parent="B7hUHJXY5SvOpSoeIQ8R-13">
          <mxGeometry y="26" width="160" height="54" as="geometry" />
        </mxCell>
        <mxCell id="B7hUHJXY5SvOpSoeIQ8R-15" value="" style="line;strokeWidth=1;fillColor=none;align=left;verticalAlign=middle;spacingTop=-1;spacingLeft=3;spacingRight=3;rotatable=0;labelPosition=right;points=[];portConstraint=eastwest;strokeColor=inherit;" vertex="1" parent="B7hUHJXY5SvOpSoeIQ8R-13">
          <mxGeometry y="80" width="160" height="8" as="geometry" />
        </mxCell>
        <mxCell id="B7hUHJXY5SvOpSoeIQ8R-16" value="+ setPoints():&amp;nbsp;&lt;div&gt;+ getPoints():&lt;/div&gt;" style="text;strokeColor=none;fillColor=none;align=left;verticalAlign=top;spacingLeft=4;spacingRight=4;overflow=hidden;rotatable=0;points=[[0,0.5],[1,0.5]];portConstraint=eastwest;whiteSpace=wrap;html=1;" vertex="1" parent="B7hUHJXY5SvOpSoeIQ8R-13">
          <mxGeometry y="88" width="160" height="42" as="geometry" />
        </mxCell>
        <mxCell id="B7hUHJXY5SvOpSoeIQ8R-17" value="Leaderboard" style="swimlane;fontStyle=1;align=center;verticalAlign=top;childLayout=stackLayout;horizontal=1;startSize=26;horizontalStack=0;resizeParent=1;resizeParentMax=0;resizeLast=0;collapsible=1;marginBottom=0;whiteSpace=wrap;html=1;" vertex="1" parent="1">
          <mxGeometry x="620" y="546" width="160" height="128" as="geometry" />
        </mxCell>
        <mxCell id="B7hUHJXY5SvOpSoeIQ8R-18" value="- PlayerList: list of Player Object" style="text;strokeColor=none;fillColor=none;align=left;verticalAlign=top;spacingLeft=4;spacingRight=4;overflow=hidden;rotatable=0;points=[[0,0.5],[1,0.5]];portConstraint=eastwest;whiteSpace=wrap;html=1;" vertex="1" parent="B7hUHJXY5SvOpSoeIQ8R-17">
          <mxGeometry y="26" width="160" height="54" as="geometry" />
        </mxCell>
        <mxCell id="B7hUHJXY5SvOpSoeIQ8R-19" value="" style="line;strokeWidth=1;fillColor=none;align=left;verticalAlign=middle;spacingTop=-1;spacingLeft=3;spacingRight=3;rotatable=0;labelPosition=right;points=[];portConstraint=eastwest;strokeColor=inherit;" vertex="1" parent="B7hUHJXY5SvOpSoeIQ8R-17">
          <mxGeometry y="80" width="160" height="8" as="geometry" />
        </mxCell>
        <mxCell id="B7hUHJXY5SvOpSoeIQ8R-20" value="+ display():&lt;div&gt;+ update():&lt;/div&gt;" style="text;strokeColor=none;fillColor=none;align=left;verticalAlign=top;spacingLeft=4;spacingRight=4;overflow=hidden;rotatable=0;points=[[0,0.5],[1,0.5]];portConstraint=eastwest;whiteSpace=wrap;html=1;" vertex="1" parent="B7hUHJXY5SvOpSoeIQ8R-17">
          <mxGeometry y="88" width="160" height="40" as="geometry" />
        </mxCell>
        <mxCell id="B7hUHJXY5SvOpSoeIQ8R-21" value="Account Manager" style="swimlane;fontStyle=1;align=center;verticalAlign=top;childLayout=stackLayout;horizontal=1;startSize=26;horizontalStack=0;resizeParent=1;resizeParentMax=0;resizeLast=0;collapsible=1;marginBottom=0;whiteSpace=wrap;html=1;" vertex="1" parent="1">
          <mxGeometry x="50" y="50" width="160" height="140" as="geometry" />
        </mxCell>
        <mxCell id="B7hUHJXY5SvOpSoeIQ8R-22" value="- AccountList(): List of account object" style="text;strokeColor=none;fillColor=none;align=left;verticalAlign=top;spacingLeft=4;spacingRight=4;overflow=hidden;rotatable=0;points=[[0,0.5],[1,0.5]];portConstraint=eastwest;whiteSpace=wrap;html=1;" vertex="1" parent="B7hUHJXY5SvOpSoeIQ8R-21">
          <mxGeometry y="26" width="160" height="34" as="geometry" />
        </mxCell>
        <mxCell id="B7hUHJXY5SvOpSoeIQ8R-23" value="" style="line;strokeWidth=1;fillColor=none;align=left;verticalAlign=middle;spacingTop=-1;spacingLeft=3;spacingRight=3;rotatable=0;labelPosition=right;points=[];portConstraint=eastwest;strokeColor=inherit;" vertex="1" parent="B7hUHJXY5SvOpSoeIQ8R-21">
          <mxGeometry y="60" width="160" height="8" as="geometry" />
        </mxCell>
        <mxCell id="B7hUHJXY5SvOpSoeIQ8R-24" value="+ addAccount():&lt;div&gt;+ removeAccount():&lt;/div&gt;" style="text;strokeColor=none;fillColor=none;align=left;verticalAlign=top;spacingLeft=4;spacingRight=4;overflow=hidden;rotatable=0;points=[[0,0.5],[1,0.5]];portConstraint=eastwest;whiteSpace=wrap;html=1;" vertex="1" parent="B7hUHJXY5SvOpSoeIQ8R-21">
          <mxGeometry y="68" width="160" height="72" as="geometry" />
        </mxCell>
        <mxCell id="B7hUHJXY5SvOpSoeIQ8R-25" value="" style="endArrow=classic;html=1;rounded=0;entryX=0.514;entryY=0.991;entryDx=0;entryDy=0;entryPerimeter=0;exitX=0.5;exitY=0;exitDx=0;exitDy=0;" edge="1" parent="1" source="B7hUHJXY5SvOpSoeIQ8R-5" target="B7hUHJXY5SvOpSoeIQ8R-4">
          <mxGeometry width="50" height="50" relative="1" as="geometry">
            <mxPoint x="585" y="770" as="sourcePoint" />
            <mxPoint x="635" y="720" as="targetPoint" />
          </mxGeometry>
        </mxCell>
        <mxCell id="B7hUHJXY5SvOpSoeIQ8R-31" value="" style="verticalAlign=bottom;html=1;endArrow=none;edgeStyle=orthogonalEdgeStyle;startFill=0;startSize=12;startArrow=diamondThin;rounded=0;exitX=0.45;exitY=1.042;exitDx=0;exitDy=0;exitPerimeter=0;entryX=0.5;entryY=0;entryDx=0;entryDy=0;" edge="1" parent="1" source="B7hUHJXY5SvOpSoeIQ8R-24" target="B7hUHJXY5SvOpSoeIQ8R-1">
          <mxGeometry relative="1" as="geometry">
            <mxPoint x="460" y="580" as="sourcePoint" />
            <mxPoint x="710" y="580" as="targetPoint" />
          </mxGeometry>
        </mxCell>
        <mxCell id="B7hUHJXY5SvOpSoeIQ8R-32" value="1" style="resizable=0;html=1;align=left;verticalAlign=top;labelBackgroundColor=none;fontSize=10" connectable="0" vertex="1" parent="B7hUHJXY5SvOpSoeIQ8R-31">
          <mxGeometry x="-0.9" relative="1" as="geometry" />
        </mxCell>
        <mxCell id="B7hUHJXY5SvOpSoeIQ8R-33" value="" style="resizable=0;html=1;align=left;verticalAlign=bottom;labelBackgroundColor=none;fontSize=10" connectable="0" vertex="1" parent="B7hUHJXY5SvOpSoeIQ8R-31">
          <mxGeometry x="-0.9" relative="1" as="geometry" />
        </mxCell>
        <mxCell id="B7hUHJXY5SvOpSoeIQ8R-34" value="*" style="resizable=0;html=1;align=right;verticalAlign=top;labelBackgroundColor=none;fontSize=10" connectable="0" vertex="1" parent="B7hUHJXY5SvOpSoeIQ8R-31">
          <mxGeometry x="0.9" relative="1" as="geometry" />
        </mxCell>
        <mxCell id="B7hUHJXY5SvOpSoeIQ8R-35" value="" style="resizable=0;html=1;align=right;verticalAlign=bottom;labelBackgroundColor=none;fontSize=10" connectable="0" vertex="1" parent="B7hUHJXY5SvOpSoeIQ8R-31">
          <mxGeometry x="0.9" relative="1" as="geometry" />
        </mxCell>
        <mxCell id="B7hUHJXY5SvOpSoeIQ8R-37" value="" style="verticalAlign=bottom;html=1;endArrow=open;endSize=12;edgeStyle=orthogonalEdgeStyle;startFill=1;startSize=12;startArrow=diamondThin;rounded=0;exitX=0.994;exitY=0.609;exitDx=0;exitDy=0;exitPerimeter=0;entryX=-0.031;entryY=0.63;entryDx=0;entryDy=0;entryPerimeter=0;" edge="1" parent="1" source="B7hUHJXY5SvOpSoeIQ8R-10" target="B7hUHJXY5SvOpSoeIQ8R-14">
          <mxGeometry relative="1" as="geometry">
            <mxPoint x="460" y="580" as="sourcePoint" />
            <mxPoint x="710" y="580" as="targetPoint" />
          </mxGeometry>
        </mxCell>
        <mxCell id="B7hUHJXY5SvOpSoeIQ8R-38" value="1" style="resizable=0;html=1;align=left;verticalAlign=top;labelBackgroundColor=none;fontSize=10" connectable="0" vertex="1" parent="B7hUHJXY5SvOpSoeIQ8R-37">
          <mxGeometry x="-0.9" relative="1" as="geometry" />
        </mxCell>
        <mxCell id="B7hUHJXY5SvOpSoeIQ8R-39" value="*" style="resizable=0;html=1;align=right;verticalAlign=top;labelBackgroundColor=none;fontSize=10" connectable="0" vertex="1" parent="B7hUHJXY5SvOpSoeIQ8R-37">
          <mxGeometry x="0.9" relative="1" as="geometry" />
        </mxCell>
        <mxCell id="B7hUHJXY5SvOpSoeIQ8R-40" value="" style="resizable=0;html=1;align=right;verticalAlign=bottom;labelBackgroundColor=none;fontSize=10" connectable="0" vertex="1" parent="B7hUHJXY5SvOpSoeIQ8R-37">
          <mxGeometry x="0.9" relative="1" as="geometry" />
        </mxCell>
        <mxCell id="B7hUHJXY5SvOpSoeIQ8R-42" value="" style="endArrow=none;startArrow=none;endFill=0;startFill=0;endSize=8;html=1;verticalAlign=bottom;labelBackgroundColor=none;strokeWidth=3;rounded=0;entryX=0.5;entryY=0;entryDx=0;entryDy=0;exitX=0.5;exitY=1;exitDx=0;exitDy=0;exitPerimeter=0;" edge="1" parent="1" source="B7hUHJXY5SvOpSoeIQ8R-8" target="B7hUHJXY5SvOpSoeIQ8R-9">
          <mxGeometry width="160" relative="1" as="geometry">
            <mxPoint x="510" y="580" as="sourcePoint" />
            <mxPoint x="670" y="580" as="targetPoint" />
          </mxGeometry>
        </mxCell>
        <mxCell id="B7hUHJXY5SvOpSoeIQ8R-44" value="" style="edgeStyle=elbowEdgeStyle;html=1;endArrow=none;elbow=vertical;rounded=0;entryX=-0.031;entryY=0.148;entryDx=0;entryDy=0;entryPerimeter=0;" edge="1" parent="1" target="B7hUHJXY5SvOpSoeIQ8R-18">
          <mxGeometry width="160" relative="1" as="geometry">
            <mxPoint x="510" y="580" as="sourcePoint" />
            <mxPoint x="670" y="580" as="targetPoint" />
            <Array as="points">
              <mxPoint x="630" y="580" />
            </Array>
          </mxGeometry>
        </mxCell>
      </root>
    </mxGraphModel>
  </diagram>
</mxfile>
